<?xml version="1.0" encoding="UTF-8"?>
<!DOCTYPE svg PUBLIC "-//W3C//DTD SVG 1.1//EN" "http://www.w3.org/Graphics/SVG/1.1/DTD/svg11.dtd">
<!-- Creator: CorelDRAW X8 -->
<svg xmlns="http://www.w3.org/2000/svg" xml:space="preserve" width="260px" height="260px" version="1.1" style="shape-rendering:geometricPrecision; text-rendering:geometricPrecision; image-rendering:optimizeQuality; fill-rule:evenodd; clip-rule:evenodd"
viewBox="0 0 260 260"
 xmlns:xlink="http://www.w3.org/1999/xlink">
 <defs>
  <style type="text/css">
   <![CDATA[
    .fil0 {fill:black}
   ]]>
  </style>
 </defs>
 <g id="Слой_x0020_1">
  <metadata id="CorelCorpID_0Corel-Layer"/>
  <g id="_543131912">
   <g>
    <path class="fil0" d="M17 223l0 -50c0,-8 4,-11 11,-11l204 0c7,0 11,3 11,11l0 50c0,7 -4,11 -11,11l-204 0c-7,0 -11,-4 -11,-11zm109 -203l8 0c26,1 52,15 66,42 9,17 8,24 8,42 0,26 -17,41 -24,51 14,0 27,0 41,0 8,-1 25,-2 25,15l0 56c0,8 -6,15 -15,15l-210 0c-9,0 -15,-7 -15,-15l0 -56c0,-7 3,-11 8,-14 7,-3 48,-1 58,-1l-9 -11c-14,-18 -15,-32 -15,-53 0,-11 4,-22 8,-29 15,-27 40,-41 66,-42zm0 20c20,0 32,3 46,17 10,10 15,20 17,39 1,14 -7,29 -15,40 -6,7 -24,19 -37,19 -16,0 -29,0 -43,-12 -3,-3 -5,-4 -8,-7 -4,-6 -7,-9 -10,-17 -2,-5 -5,-17 -5,-23 2,-18 7,-29 17,-39 8,-8 21,-17 38,-17zm-58 53c0,17 1,26 13,42 3,4 6,8 11,11 8,6 6,4 11,7 2,1 1,1 2,2 -4,0 -8,0 -12,0 -15,-1 -34,-32 -34,-56 0,-14 2,-21 7,-32 14,-33 58,-50 93,-34 47,22 57,80 18,117 -3,3 -4,4 -9,5 -4,0 -9,0 -13,0 2,-2 7,-4 13,-9 12,-9 24,-27 24,-42 0,-21 -3,-36 -18,-51 -1,-2 -2,-1 -4,-3 -1,-1 -2,-2 -3,-3 -4,-2 -7,-4 -10,-6 -23,-11 -52,-6 -71,12l-12 16c-3,6 -6,15 -6,24z"/>
    <path class="fil0" d="M107 91c5,-1 10,-2 16,-2 1,-6 5,-9 6,-14l2 0c1,5 5,8 6,14 6,0 11,1 16,2 -2,2 -11,10 -11,11 0,7 2,9 2,16 -17,-9 -11,-9 -28,0 0,-17 7,-12 -3,-21 -3,-2 -4,-4 -6,-6zm10 -9c-10,0 -18,3 -27,3l20 20c-2,8 -3,18 -5,27 6,-2 23,-12 25,-12 2,0 19,10 25,12 -2,-9 -3,-19 -5,-27l20 -20c-9,0 -17,-3 -27,-3 -3,-6 -9,-22 -13,-24 -4,2 -10,18 -13,24z"/>
    <path class="fil0" d="M84 195l-3 0 0 -11c7,0 6,-1 6,8 0,2 -1,3 -3,3zm-9 19c0,3 2,3 6,3l0 -16c3,0 4,0 6,1 0,6 0,9 1,15l6 0c0,-13 1,-13 -4,-20 2,-1 1,-1 3,-3 2,-4 3,-16 -10,-16l-8 0 0 36z"/>
    <path class="fil0" d="M208 181l0 33c0,3 1,3 4,3 7,0 -1,-11 5,-15 1,5 4,9 5,15l6 0c0,-12 -10,-17 -6,-25 2,-5 6,-10 6,-14 -12,0 -6,7 -13,15l0 -15c-5,0 -7,-1 -7,3z"/>
    <path class="fil0" d="M31 189c0,14 -3,28 10,28 11,0 9,-14 9,-22l-9 0 0 6 3 0c0,2 0,5 0,7 -2,4 -2,3 -6,3l0 -27c6,0 6,0 6,7l6 0c0,-19 -19,-17 -19,-2z"/>
    <path class="fil0" d="M53 208c0,12 18,11 18,1l0 -31c-8,0 -6,-3 -6,33 -9,0 -6,-5 -6,-33l-6 0 0 30z"/>
    <path class="fil0" d="M97 208c0,12 18,11 18,1l0 -31c-8,0 -6,-3 -6,33 -9,0 -6,-5 -6,-33l-6 0 0 30z"/>
    <path class="fil0" d="M187 186c0,22 -3,31 10,31 9,0 8,-10 8,-15l-6 0c0,6 1,9 -3,9 -5,0 -3,-10 -3,-24 0,-5 6,-5 6,0l0 4 6 0c0,-10 -1,-13 -10,-13 -5,0 -8,3 -8,8z"/>
    <path class="fil0" d="M140 208c0,3 -6,7 -6,-3l-6 0c0,18 23,14 18,-3 -3,-8 -11,-5 -11,-18l5 0c0,4 1,5 6,5 0,-10 -1,-11 -11,-11 -4,0 -9,7 -5,15 2,5 10,8 10,15z"/>
    <path class="fil0" d="M162 197l0 -13c5,0 6,0 6,5l0 4c0,3 -2,3 -6,4zm-6 20l6 0 0 -15c11,0 12,-1 12,-15 0,-11 -11,-9 -18,-9l0 39z"/>
    <polygon class="fil0" points="177,217 183,217 183,178 177,178 "/>
    <path class="fil0" d="M120 190c4,-1 2,1 4,-4 1,-3 1,-5 1,-8l-6 0c0,0 0,2 0,3 1,7 3,-2 1,9z"/>
   </g>
  </g>
 </g>
</svg>
