<?xml version="1.0" encoding="UTF-8"?>
<!DOCTYPE svg PUBLIC "-//W3C//DTD SVG 1.1//EN" "http://www.w3.org/Graphics/SVG/1.1/DTD/svg11.dtd">
<!-- Creator: CorelDRAW X8 -->
<svg xmlns="http://www.w3.org/2000/svg" xml:space="preserve" width="260px" height="260px" version="1.1" style="shape-rendering:geometricPrecision; text-rendering:geometricPrecision; image-rendering:optimizeQuality; fill-rule:evenodd; clip-rule:evenodd"
viewBox="0 0 260 260"
 xmlns:xlink="http://www.w3.org/1999/xlink">
 <defs>
  <style type="text/css">
   <![CDATA[
    .fil0 {fill:black}
   ]]>
  </style>
 </defs>
 <g id="Слой_x0020_1">
  <metadata id="CorelCorpID_0Corel-Layer"/>
  <g id="_542480032">
   <g>
    <path class="fil0" d="M30 116c0,-8 9,-12 12,-17 5,-9 -3,-42 4,-54 3,-5 10,-11 19,-11l130 0c8,0 15,5 19,10 7,12 0,45 4,54 2,6 12,10 12,18 0,11 -9,13 -13,20 -1,4 2,42 -1,50 -3,6 -11,13 -19,13l-134 0c-10,0 -20,-9 -20,-21 0,-14 0,-28 0,-42 -4,-7 -13,-9 -13,-20zm-22 93l0 0c33,-34 25,-22 25,-37 0,-4 0,-7 0,-11 0,-35 0,-17 -8,-31 -12,-20 5,-31 8,-35 0,-15 -2,-37 2,-49 4,-10 15,-21 29,-21l132 0c14,0 25,10 29,22 3,10 2,34 2,48 0,1 21,16 8,36 -9,12 -8,-4 -8,30 0,15 -1,12 -1,21l26 27 -25 0 0 25c-4,-1 -5,-4 -8,-6 -2,-3 -4,-4 -6,-7 -19,-18 -10,-12 -22,-12l-122 0c-5,0 -4,-1 -8,-1 -4,1 -22,24 -28,26l0 -25 -25 0z"/>
    <path class="fil0" d="M51 176l0 -119c0,-10 8,-15 18,-15l53 0c3,0 41,40 44,43 3,3 43,41 43,44l0 47c0,9 -6,15 -15,15l-128 0c-9,0 -15,-6 -15,-15zm153 -109c0,5 4,3 4,9 0,3 -7,8 -9,10 -4,4 -5,6 -10,9 -6,-3 -30,-28 -30,-29 0,-5 15,-20 20,-20 3,0 1,0 3,2 2,1 2,1 4,2 8,-4 9,-2 14,4 11,10 4,9 4,13zm-156 -10l0 120c0,9 8,17 17,17l130 0c9,0 17,-8 17,-17l0 -120c0,-13 -10,-18 -22,-18l-120 0c-6,0 -12,1 -16,4 -3,3 -6,8 -6,14z"/>
    <path class="fil0" d="M112 163c0,-11 -1,-35 1,-44l8 -1c1,2 2,3 2,6l0 43c-2,1 -3,2 -5,3 -4,-2 -6,-1 -6,-7zm-11 -42l0 44c0,18 34,25 34,-6 0,-14 2,-37 -4,-45 -7,-12 -30,-7 -30,7z"/>
    <path class="fil0" d="M61 132l11 0c0,-9 -1,-8 3,-14 6,0 11,0 8,15 -5,18 -22,13 -22,46l33 0 0 -10 -21 0c0,-10 8,-14 12,-21 6,-7 10,-12 10,-24 0,-5 -2,-10 -5,-12 -6,-7 -20,-7 -26,2 -2,4 -3,11 -3,18z"/>
    <path class="fil0" d="M148 143c0,-22 -3,-30 7,-28 0,6 0,11 0,17 0,8 2,15 -3,15 -2,0 -4,-2 -4,-4zm-7 -24c0,18 -4,35 11,35 14,0 11,-18 11,-32 0,-14 -5,-14 -13,-14 -6,0 -9,5 -9,11z"/>
    <path class="fil0" d="M183 167c0,-10 -2,-27 4,-27 2,0 3,1 3,3l0 27c0,5 -7,4 -7,-3zm-7 -22c0,16 -4,35 11,35 14,0 11,-19 11,-34 0,-12 -6,-12 -13,-12 -6,0 -9,5 -9,11z"/>
    <path class="fil0" d="M152 179l7 0 24 -61c1,-3 3,-7 3,-10l-6 0c-3,5 -5,12 -7,17l-14 36c-2,5 -6,12 -7,18z"/>
    <path class="fil0" d="M86 91l0 -25 4 -2 4 2c0,26 2,32 -8,27l0 -2zm-5 -19c0,12 -2,27 9,27 12,0 9,-16 9,-28 0,-3 -1,-6 -2,-8 -4,-5 -16,-5 -16,9z"/>
    <path class="fil0" d="M107 80l0 -15c9,0 8,0 8,13 -3,2 -3,2 -8,2zm-4 18l4 0 0 -14c14,0 12,-5 12,-16 0,-9 -7,-7 -16,-7l0 37z"/>
    <path class="fil0" d="M178 69c0,-9 14,-11 14,1l0 2c-2,1 -4,4 -7,4 -3,0 -7,-4 -7,-7zm-4 -2c0,18 22,18 22,0 0,-3 -1,-5 -3,-7 -8,-7 -19,-1 -19,7z"/>
    <polygon class="fil0" points="61,65 68,65 68,98 72,98 72,65 79,65 79,61 61,61 "/>
   </g>
  </g>
 </g>
</svg>
