<?xml version="1.0" encoding="UTF-8"?>
<!DOCTYPE svg PUBLIC "-//W3C//DTD SVG 1.1//EN" "http://www.w3.org/Graphics/SVG/1.1/DTD/svg11.dtd">
<!-- Creator: CorelDRAW X8 -->
<svg xmlns="http://www.w3.org/2000/svg" xml:space="preserve" width="260px" height="260px" version="1.1" style="shape-rendering:geometricPrecision; text-rendering:geometricPrecision; image-rendering:optimizeQuality; fill-rule:evenodd; clip-rule:evenodd"
viewBox="0 0 260 260"
 xmlns:xlink="http://www.w3.org/1999/xlink">
 <defs>
  <style type="text/css">
   <![CDATA[
    .fil0 {fill:black}
   ]]>
  </style>
 </defs>
 <g id="Слой_x0020_1">
  <metadata id="CorelCorpID_0Corel-Layer"/>
  <g id="_543131432">
   <g>
    <path class="fil0" d="M44 177l0 -114c0,-12 7,-22 16,-24 12,-3 109,-1 129,-1 17,0 27,8 27,25l0 115c0,14 -10,24 -25,24l-120 0c-9,0 -16,-3 -20,-7 -4,-3 -7,-11 -7,-18zm-9 -116l0 118c0,4 1,9 3,13 -3,1 -24,22 -26,26l14 0 0 14c3,-1 4,-3 6,-6l19 -19c5,2 10,4 17,4l123 0c8,0 13,-2 17,-4 2,2 23,23 26,25l0 -14 13 0c-1,-5 -22,-25 -25,-26 2,-4 3,-9 3,-13l0 -118c0,-16 -13,-31 -29,-31l-133 0c-15,0 -28,15 -28,31z"/>
    <path class="fil0" d="M53 181l0 -122c0,-7 5,-12 12,-12l57 0c4,0 41,38 44,41 3,3 41,40 41,44l0 49c0,6 -5,12 -12,12l-130 0c-7,0 -12,-6 -12,-12zm149 -109c4,2 4,3 5,7 -2,4 -14,16 -19,19 -4,-3 -30,-28 -30,-30 0,-3 17,-19 19,-19 3,0 6,4 7,4 8,0 4,-7 15,3 3,4 4,4 6,9 -1,2 -1,4 -3,7zm-152 -14l0 124c0,6 7,14 13,14l133 0c7,0 14,-8 14,-14l0 -124c0,-8 -8,-14 -16,-14l-131 0c-6,0 -13,7 -13,14z"/>
    <path class="fil0" d="M120 173l-6 0c-1,-2 -2,-3 -2,-6 0,-12 -1,-35 1,-44l7 -1c2,2 3,3 3,7l0 37c0,3 -1,4 -3,7zm-20 -38c0,15 -4,48 14,48 8,0 20,0 20,-16l0 -39c0,-19 -23,-21 -31,-10 -2,4 -3,11 -3,17z"/>
    <path class="fil0" d="M62 130l0 3 11 0 0 -10 7 -1c5,6 6,19 -4,19l-3 0 0 10c11,0 10,1 10,15 0,3 -1,4 -3,7l-7 -1c-1,-7 0,-5 0,-12l-11 0c0,18 3,23 20,23 16,0 14,-28 11,-34 -2,-3 -3,-1 -5,-4 11,-3 9,-33 -6,-33 -11,0 -20,1 -20,18z"/>
    <path class="fil0" d="M153 151c-7,0 -5,-1 -5,-29 0,-4 2,-3 6,-3 1,4 1,3 1,9 0,7 2,17 -2,23zm-13 -25c0,14 -3,31 11,31 15,0 11,-18 11,-33 0,-16 -22,-18 -22,2z"/>
    <path class="fil0" d="M182 171c0,-14 -2,-27 4,-27 3,0 3,0 3,3 0,29 3,29 -6,29 0,-3 -1,-3 -1,-5zm-7 -22c0,22 -3,34 12,34 13,0 9,-20 9,-37 0,-11 -21,-13 -21,3z"/>
    <path class="fil0" d="M151 183l6 0c3,-4 28,-68 28,-71l-6 0 -28 71z"/>
    <path class="fil0" d="M86 96l0 -24c11,-6 8,1 8,24 0,5 -8,5 -8,0zm-4 -16c0,5 -1,14 1,18 2,8 17,9 17,-5 0,-10 2,-27 -9,-27 -8,0 -9,6 -9,14z"/>
    <path class="fil0" d="M113 85l-6 0 0 -14 6 0c3,4 4,9 0,14zm-10 16c0,3 1,2 4,3l0 -15 8 0c5,-7 4,-3 4,-14 0,-5 -2,-6 -4,-8l-12 0 0 34z"/>
    <path class="fil0" d="M184 79c-2,0 -4,-3 -7,-4 0,-4 0,-6 2,-8 5,-5 12,-2 12,5 0,3 -3,7 -7,7zm-11 -10c0,4 0,5 2,8 4,8 16,7 20,0 5,-12 -9,-21 -18,-14 -1,1 -4,4 -4,6z"/>
    <path class="fil0" d="M65 71l3 0 0 33 5 0 0 -33 6 0 0 -4 -17 0c0,2 -1,4 3,4z"/>
   </g>
  </g>
 </g>
</svg>
