<?xml version="1.0" encoding="UTF-8"?>
<!DOCTYPE svg PUBLIC "-//W3C//DTD SVG 1.1//EN" "http://www.w3.org/Graphics/SVG/1.1/DTD/svg11.dtd">
<!-- Creator: CorelDRAW X8 -->
<svg xmlns="http://www.w3.org/2000/svg" xml:space="preserve" width="260px" height="260px" version="1.1" style="shape-rendering:geometricPrecision; text-rendering:geometricPrecision; image-rendering:optimizeQuality; fill-rule:evenodd; clip-rule:evenodd"
viewBox="0 0 260 260"
 xmlns:xlink="http://www.w3.org/1999/xlink">
 <defs>
  <style type="text/css">
   <![CDATA[
    .fil0 {fill:#fff}
   ]]>
  </style>
 </defs>
 <g id="Слой_x0020_1">
  <metadata id="CorelCorpID_0Corel-Layer"/>
  <g id="_547068408">
   <g>
    <path class="fil0" d="M109 29c-11,0 -23,0 -34,0 -14,0 -19,1 -26,9 -7,7 -9,12 -9,25 0,12 0,23 0,35 -5,7 -12,9 -12,21 0,13 12,19 12,23l0 39c0,5 -30,28 -32,35 5,0 11,0 16,0 13,0 8,2 22,-12 17,-16 2,-1 2,-35 0,-11 0,-22 0,-33 -1,-4 -11,-6 -11,-18 0,-7 8,-11 11,-16 2,-7 -5,-46 7,-58 6,-7 13,-7 25,-7 11,0 22,0 33,0 5,-2 5,-11 19,-11 7,0 11,8 16,11 11,0 21,0 32,0 13,0 28,1 32,16 1,5 -1,46 0,48 1,4 12,7 12,19 0,7 -9,12 -12,17 -2,6 3,43 -3,53 -4,7 -7,3 4,14 16,16 7,12 39,12 -1,-3 -1,-2 -3,-5l-12 -12c-3,-2 -16,-14 -16,-17l0 -41c0,-3 5,-7 7,-9 15,-15 -7,-34 -7,-34 0,-11 0,-23 0,-34 0,-13 -2,-19 -9,-26 -7,-7 -11,-9 -25,-9 -12,0 -23,0 -35,0 -6,-2 -5,-12 -23,-12 -11,0 -14,8 -20,12z"/>
    <path class="fil0" d="M192 193l-123 0c-5,0 -12,-5 -12,-11l0 -125c0,-7 8,-12 15,-12l49 0c6,0 16,13 22,19l51 51c2,2 10,8 10,11l0 55c0,6 -6,12 -12,12zm8 -125c0,9 10,3 -5,17 -11,12 -7,11 -24,-5 -16,-17 -16,-13 -6,-24 2,-1 8,-8 9,-8 5,0 6,3 7,3 10,0 6,-6 21,11 -1,2 -2,3 -2,6zm-147 -9l0 118c0,8 3,13 9,17 2,2 4,2 7,2l123 0c6,0 10,-3 12,-6 3,-4 4,-8 4,-15l0 -112c0,-6 -1,-11 -3,-15 -2,-2 -8,-6 -12,-6l-124 0c-10,0 -16,9 -16,17z"/>
    <path class="fil0" d="M36 244c4,-1 5,-4 9,-8 3,-3 6,-6 9,-9 3,-3 6,-6 9,-9 12,-12 5,-8 45,-8 6,0 4,11 26,11 3,0 8,-3 10,-4 2,-2 5,-7 8,-7l35 0c3,0 7,6 9,8 3,3 6,6 9,9l14 13c2,3 2,3 5,4 0,-5 0,-11 0,-16 0,-9 2,-9 -3,-14 -5,-4 -14,-13 -17,-17 -16,8 -49,2 -56,4 -3,1 -9,12 -17,12 -9,0 -12,-8 -18,-12 -4,-1 -42,2 -51,-2 -11,-4 -3,-4 -22,15 -5,5 -4,4 -4,13 0,6 0,11 0,17z"/>
    <path class="fil0" d="M113 168l-7 -1c-2,-10 -1,-37 -1,-48 0,-6 8,-3 10,-3 2,9 1,34 1,45 0,4 -2,5 -3,7zm-20 -48c0,8 -1,44 1,50 2,3 5,6 9,7 7,3 16,2 20,-3 8,-7 5,-37 5,-50 0,-28 -35,-24 -35,-4z"/>
    <path class="fil0" d="M66 114l0 8c6,0 9,-1 9,3l0 53c9,0 12,1 12,-3 0,-14 1,-60 -1,-70l-8 0c0,4 0,2 -1,4 -1,1 -1,2 -2,3 -3,2 -5,2 -9,2z"/>
    <path class="fil0" d="M184 171c-8,0 -6,1 -6,-30 0,-5 7,-3 7,1 0,6 1,25 -1,29zm-14 -28c0,26 -3,35 13,35 5,0 9,-4 9,-9l0 -29c0,-12 -22,-14 -22,3z"/>
    <path class="fil0" d="M145 145c-2,0 -3,-1 -3,-3 0,-9 -2,-31 3,-31 2,0 4,2 4,4l0 26c0,2 -2,4 -4,4zm-11 -28c0,18 -3,35 12,35 5,0 10,-4 10,-9l0 -31c0,-8 -22,-13 -22,5z"/>
    <path class="fil0" d="M146 178l6 0c3,-5 5,-12 7,-18l14 -36c2,-5 7,-14 7,-19l-6 0 -25 63c-1,3 -3,6 -3,10z"/>
    <path class="fil0" d="M94 85l1 -19 6 -1c3,6 3,22 0,28l-5 0c-1,-2 -2,-4 -2,-8zm-4 -13c0,15 -2,25 9,25 10,0 8,-14 8,-25 0,-15 -17,-15 -17,0z"/>
    <path class="fil0" d="M118 79l-4 0c0,-16 -1,-15 7,-13 1,3 3,13 -3,13zm-8 -15l0 33 4 0 0 -11c0,-6 12,1 12,-11 0,-11 0,-14 -13,-14 -2,0 -3,1 -3,3z"/>
    <path class="fil0" d="M187 74c-5,3 -6,2 -11,-1l1 -9c6,-1 4,-1 10,0 1,5 3,5 0,10zm-16 -5c0,14 22,15 22,0 0,-14 -22,-14 -22,0z"/>
    <path class="fil0" d="M71 65l6 0c2,9 1,22 1,32 3,0 4,0 4,-3l0 -29 6 0c0,-5 0,-4 -14,-4 -3,0 -3,1 -3,4z"/>
   </g>
  </g>
 </g>
</svg>
