<?xml version="1.0" encoding="UTF-8"?>
<!DOCTYPE svg PUBLIC "-//W3C//DTD SVG 1.1//EN" "http://www.w3.org/Graphics/SVG/1.1/DTD/svg11.dtd">
<!-- Creator: CorelDRAW X8 -->
<svg xmlns="http://www.w3.org/2000/svg" xml:space="preserve" width="260px" height="260px" version="1.1" style="shape-rendering:geometricPrecision; text-rendering:geometricPrecision; image-rendering:optimizeQuality; fill-rule:evenodd; clip-rule:evenodd"
viewBox="0 0 260 260"
 xmlns:xlink="http://www.w3.org/1999/xlink">
 <defs>
  <style type="text/css">
   <![CDATA[
    .fil0 {fill:#fff}
   ]]>
  </style>
 </defs>
 <g id="Слой_x0020_1">
  <metadata id="CorelCorpID_0Corel-Layer"/>
  <g id="_543136320">
   <g>
    <path class="fil0" d="M70 246c-2,0 -5,-3 -5,-5l0 -220c0,-2 0,-3 1,-4l3 -3c9,1 52,24 61,24 9,0 54,-24 61,-24 1,0 4,3 4,5l0 220c0,3 -1,4 -2,6 0,0 -1,0 -1,0 0,0 0,0 0,1 -1,0 -1,0 -1,0 -8,-1 -52,-29 -61,-29 -4,0 -12,4 -16,6 -7,4 -41,23 -44,23zm-9 -227l0 222c0,5 4,9 10,9 6,0 52,-28 57,-28 11,0 17,6 33,14 7,4 23,14 29,14 5,0 9,-4 9,-9l0 -222c0,-5 -4,-9 -10,-9 -3,0 -25,10 -29,12 -38,16 -22,15 -59,0 -7,-3 -25,-12 -31,-12 -5,0 -9,4 -9,9z"/>
    <path class="fil0" d="M70 241l0 -222c4,0 11,4 14,6 7,3 39,17 44,17 12,0 23,-6 33,-11l29 -12 0 222c-3,-1 -11,-5 -14,-7 -5,-3 -9,-5 -14,-8 -15,-7 -22,-13 -34,-13 -7,0 -23,10 -29,14l-29 14zm-3 -219l0 216c0,3 1,4 2,6 17,-4 46,-29 63,-29 5,0 31,16 39,19l15 9c3,1 7,1 7,-3l0 -221c0,-6 -9,-1 -17,3 -5,2 -10,4 -15,6 -30,13 -26,16 -48,6l-41 -17c-3,-1 -5,1 -5,5z"/>
    <path class="fil0" d="M161 155c-2,-10 -1,-38 -1,-50 0,-9 12,-8 12,1l0 43c0,8 -6,9 -11,6zm-13 -51l0 47c0,20 25,21 32,11 6,-9 4,-40 4,-55 0,-28 -36,-25 -36,-3z"/>
    <path class="fil0" d="M119 155c-2,-10 -1,-38 -1,-50 0,-8 12,-9 12,3l0 39c0,9 -4,11 -11,8zm-13 -52l0 49c0,20 36,26 36,-6l0 -37c0,-31 -36,-26 -36,-6z"/>
    <path class="fil0" d="M76 98l0 9 9 0 0 60 13 0 0 -79 -9 0c-2,7 -5,10 -13,10z"/>
    <path class="fil0" d="M124 62c3,2 3,4 7,5 1,-4 5,-6 6,-10 3,2 5,11 6,15l-26 0c2,-4 5,-6 7,-10zm-6 -3c0,-3 4,-5 5,-1 0,4 -5,4 -5,1zm-5 15c0,2 1,3 3,3l28 0c6,0 4,-11 4,-23 0,-2 -1,-3 -3,-3l-32 0 0 23z"/>
    <path class="fil0" d="M153 203l2 -17 6 17 3 0 0 -22c0,-4 0,0 -1,-3 -3,3 -2,3 -2,14 0,0 0,-1 0,-1l-2 -2c-3,-10 0,-11 -6,-11l0 25z"/>
    <path class="fil0" d="M129 190l0 -9c3,0 5,0 5,3l0 3c0,3 -2,3 -5,3zm-3 -9l0 22 3 0 0 -10c6,0 5,0 5,10l3 0c0,-12 -2,-9 -2,-12 0,-1 7,-13 -6,-13 -2,0 -3,1 -3,3z"/>
    <path class="fil0" d="M166 181l0 22 3 0c0,-10 -1,-8 2,-10 0,5 2,10 7,10 -12,-22 -2,-12 -1,-25 -4,1 -3,1 -4,5l-3 4c-1,3 0,1 -1,2 0,-11 1,-9 -2,-11 -1,1 -1,1 -1,3z"/>
    <path class="fil0" d="M103 200l-4 0c-2,-7 -2,-12 0,-19l4 0c1,12 2,5 0,19zm-8 -13c0,8 -1,10 3,16 10,0 8,2 8,-22 -1,-1 -3,-3 -4,-3 -6,0 -7,3 -7,9z"/>
    <path class="fil0" d="M144 183l1 0c0,3 1,9 2,12l-5 0c1,-3 2,-8 2,-12zm-6 20l3 0c0,-3 0,-3 1,-5l6 0 0 5 3 0 -4 -20c0,-5 0,-5 -4,-5l-5 25z"/>
    <path class="fil0" d="M112 191l0 -10c3,0 5,1 5,4l0 2c0,3 -2,4 -5,4zm-3 -10l0 22 3 0 0 -10c4,0 8,1 8,-7 0,-9 -11,-11 -11,-5z"/>
    <path class="fil0" d="M77 46c3,4 3,2 3,9 5,-3 4,-3 9,0 0,-7 0,-5 3,-9 -5,0 -5,-1 -7,-5 -4,3 -1,4 -8,5z"/>
    <path class="fil0" d="M168 46c3,4 3,2 3,9 6,-3 3,-2 9,-1 0,-7 0,-4 3,-8 -8,-2 -4,-2 -8,-5 -1,4 -3,5 -7,5z"/>
    <path class="fil0" d="M78 217c1,5 2,1 2,9 4,-2 5,-2 9,0 0,-8 1,-4 2,-9 -4,0 -5,-2 -6,-5 -4,4 -2,5 -7,5z"/>
    <path class="fil0" d="M169 217c1,5 2,1 2,9 5,-2 5,-2 9,0 0,-7 0,-5 3,-9 -7,0 -4,-2 -8,-5 -1,4 -1,5 -6,5z"/>
    <path class="fil0" d="M82 181c4,0 2,0 5,1l2 21 0 -22 5 0c-1,-4 0,-3 -9,-3 -2,0 -3,1 -3,3z"/>
   </g>
  </g>
 </g>
</svg>
